<mxfile host="app.diagrams.net" agent="Mozilla/5.0 (Windows NT 10.0; Win64; x64) AppleWebKit/537.36 (KHTML, like Gecko) Chrome/138.0.0.0 Safari/537.36" version="27.2.0">
  <diagram name="Page-1" id="cNQ3jGSSwMzKaeNfMzMZ">
    <mxGraphModel dx="1042" dy="1662" grid="1" gridSize="10" guides="1" tooltips="1" connect="1" arrows="1" fold="1" page="1" pageScale="1" pageWidth="850" pageHeight="1100" math="0" shadow="0">
      <root>
        <mxCell id="0" />
        <mxCell id="1" parent="0" />
        <mxCell id="q2KytA-D3xJXwT2xgLaa-54" value="" style="rounded=0;whiteSpace=wrap;html=1;fillColor=#f5f5f5;fontColor=#333333;strokeColor=#666666;" parent="1" vertex="1">
          <mxGeometry x="130" y="-30" width="560" height="660" as="geometry" />
        </mxCell>
        <mxCell id="q2KytA-D3xJXwT2xgLaa-1" value="&lt;b&gt;&lt;span&gt;Monitor &amp;amp; Analyze&lt;/span&gt;&lt;/b&gt;&lt;div&gt;&lt;b&gt;&lt;span&gt;Crowd&lt;/span&gt;&lt;/b&gt;&lt;/div&gt;" style="ellipse;whiteSpace=wrap;html=1;fillColor=#fff2cc;gradientColor=#ffd966;strokeColor=#d6b656;fontStyle=0" parent="1" vertex="1">
          <mxGeometry x="340" y="40" width="120" height="80" as="geometry" />
        </mxCell>
        <mxCell id="q2KytA-D3xJXwT2xgLaa-2" value="&lt;b&gt;Predict Bottlenecks&lt;/b&gt;" style="ellipse;whiteSpace=wrap;html=1;fillColor=#fff2cc;gradientColor=#ffd966;strokeColor=#d6b656;" parent="1" vertex="1">
          <mxGeometry x="340" y="210" width="120" height="80" as="geometry" />
        </mxCell>
        <mxCell id="KgOcp3zL5TzuFMi9tkQG-6" style="edgeStyle=orthogonalEdgeStyle;rounded=0;orthogonalLoop=1;jettySize=auto;html=1;exitX=0;exitY=0.625;exitDx=0;exitDy=0;exitPerimeter=0;entryX=0;entryY=0.625;entryDx=0;entryDy=0;entryPerimeter=0;" edge="1" parent="1" target="q2KytA-D3xJXwT2xgLaa-3">
          <mxGeometry relative="1" as="geometry">
            <mxPoint x="329" y="470" as="targetPoint" />
            <mxPoint x="80" y="300" as="sourcePoint" />
            <Array as="points">
              <mxPoint x="80" y="470" />
            </Array>
          </mxGeometry>
        </mxCell>
        <mxCell id="q2KytA-D3xJXwT2xgLaa-3" value="&lt;b&gt;Detect Anomalies&lt;/b&gt;" style="ellipse;whiteSpace=wrap;html=1;fillColor=#fff2cc;gradientColor=#ffd966;strokeColor=#d6b656;" parent="1" vertex="1">
          <mxGeometry x="340" y="420" width="120" height="80" as="geometry" />
        </mxCell>
        <mxCell id="q2KytA-D3xJXwT2xgLaa-4" value="&lt;b&gt;Manage Emergency Response&lt;/b&gt;" style="ellipse;whiteSpace=wrap;html=1;fillColor=#dae8fc;strokeColor=#6c8ebf;" parent="1" vertex="1">
          <mxGeometry x="520" y="510" width="120" height="80" as="geometry" />
        </mxCell>
        <mxCell id="q2KytA-D3xJXwT2xgLaa-5" value="&lt;b&gt;&lt;i&gt;Generate Situation Summaries in Natural Language&lt;/i&gt;&lt;/b&gt;" style="ellipse;whiteSpace=wrap;html=1;fillColor=#b1ddf0;strokeColor=#10739e;" parent="1" vertex="1">
          <mxGeometry x="170" y="320" width="120" height="80" as="geometry" />
        </mxCell>
        <mxCell id="q2KytA-D3xJXwT2xgLaa-6" value="&lt;b&gt;&lt;i&gt;Incident Location&amp;nbsp;&lt;/i&gt;&lt;/b&gt;&lt;div&gt;&lt;b&gt;&lt;i&gt;Co-ordination&lt;/i&gt;&lt;/b&gt;&lt;/div&gt;" style="ellipse;whiteSpace=wrap;html=1;fillColor=#dae8fc;strokeColor=#6c8ebf;" parent="1" vertex="1">
          <mxGeometry x="520" y="320" width="120" height="80" as="geometry" />
        </mxCell>
        <mxCell id="q2KytA-D3xJXwT2xgLaa-10" value="" style="endArrow=classic;html=1;rounded=0;exitX=0.5;exitY=1;exitDx=0;exitDy=0;dashed=1;strokeWidth=2;" parent="1" source="q2KytA-D3xJXwT2xgLaa-6" target="q2KytA-D3xJXwT2xgLaa-4" edge="1">
          <mxGeometry width="50" height="50" relative="1" as="geometry">
            <mxPoint x="570" y="460" as="sourcePoint" />
            <mxPoint x="620" y="410" as="targetPoint" />
            <Array as="points" />
          </mxGeometry>
        </mxCell>
        <mxCell id="q2KytA-D3xJXwT2xgLaa-12" value="&lt;b&gt;&amp;lt;include&amp;gt;&lt;/b&gt;" style="edgeLabel;html=1;align=center;verticalAlign=middle;resizable=0;points=[];" parent="q2KytA-D3xJXwT2xgLaa-10" vertex="1" connectable="0">
          <mxGeometry x="0.0099" y="-1" relative="1" as="geometry">
            <mxPoint as="offset" />
          </mxGeometry>
        </mxCell>
        <mxCell id="q2KytA-D3xJXwT2xgLaa-13" value="&lt;b&gt;&lt;i&gt;Real Time Video Streams with Crowd Density/Velocity/Flow&lt;/i&gt;&lt;/b&gt;" style="ellipse;whiteSpace=wrap;html=1;fillColor=#dae8fc;strokeColor=#6c8ebf;" parent="1" vertex="1">
          <mxGeometry x="505" y="100" width="150" height="110" as="geometry" />
        </mxCell>
        <mxCell id="q2KytA-D3xJXwT2xgLaa-14" value="" style="endArrow=classic;html=1;rounded=0;exitX=0.72;exitY=0.942;exitDx=0;exitDy=0;dashed=1;strokeWidth=2;exitPerimeter=0;entryX=0.03;entryY=0.348;entryDx=0;entryDy=0;entryPerimeter=0;" parent="1" source="q2KytA-D3xJXwT2xgLaa-5" target="q2KytA-D3xJXwT2xgLaa-3" edge="1">
          <mxGeometry width="50" height="50" relative="1" as="geometry">
            <mxPoint x="330" y="260" as="sourcePoint" />
            <mxPoint x="210" y="438" as="targetPoint" />
            <Array as="points" />
          </mxGeometry>
        </mxCell>
        <mxCell id="q2KytA-D3xJXwT2xgLaa-15" value="&lt;b&gt;&amp;lt;extend&amp;gt;&lt;/b&gt;" style="edgeLabel;html=1;align=center;verticalAlign=middle;resizable=0;points=[];" parent="q2KytA-D3xJXwT2xgLaa-14" vertex="1" connectable="0">
          <mxGeometry x="0.0099" y="-1" relative="1" as="geometry">
            <mxPoint as="offset" />
          </mxGeometry>
        </mxCell>
        <mxCell id="q2KytA-D3xJXwT2xgLaa-16" value="" style="endArrow=classic;html=1;rounded=0;entryX=0.957;entryY=0.308;entryDx=0;entryDy=0;dashed=1;strokeWidth=2;entryPerimeter=0;" parent="1" source="q2KytA-D3xJXwT2xgLaa-6" target="q2KytA-D3xJXwT2xgLaa-3" edge="1">
          <mxGeometry width="50" height="50" relative="1" as="geometry">
            <mxPoint x="500" y="311" as="sourcePoint" />
            <mxPoint x="380" y="489" as="targetPoint" />
            <Array as="points" />
          </mxGeometry>
        </mxCell>
        <mxCell id="q2KytA-D3xJXwT2xgLaa-17" value="&lt;b&gt;&amp;lt;include&amp;gt;&lt;/b&gt;" style="edgeLabel;html=1;align=center;verticalAlign=middle;resizable=0;points=[];" parent="q2KytA-D3xJXwT2xgLaa-16" vertex="1" connectable="0">
          <mxGeometry x="0.0099" y="-1" relative="1" as="geometry">
            <mxPoint as="offset" />
          </mxGeometry>
        </mxCell>
        <mxCell id="q2KytA-D3xJXwT2xgLaa-18" value="" style="endArrow=classic;html=1;rounded=0;entryX=1;entryY=1;entryDx=0;entryDy=0;exitX=0;exitY=0.5;exitDx=0;exitDy=0;dashed=1;strokeWidth=2;" parent="1" source="q2KytA-D3xJXwT2xgLaa-13" target="q2KytA-D3xJXwT2xgLaa-1" edge="1">
          <mxGeometry width="50" height="50" relative="1" as="geometry">
            <mxPoint x="485" y="130" as="sourcePoint" />
            <mxPoint x="365" y="308" as="targetPoint" />
            <Array as="points" />
          </mxGeometry>
        </mxCell>
        <mxCell id="q2KytA-D3xJXwT2xgLaa-19" value="&lt;b&gt;&amp;lt;include&amp;gt;&lt;/b&gt;" style="edgeLabel;html=1;align=center;verticalAlign=middle;resizable=0;points=[];" parent="q2KytA-D3xJXwT2xgLaa-18" vertex="1" connectable="0">
          <mxGeometry x="0.0099" y="-1" relative="1" as="geometry">
            <mxPoint as="offset" />
          </mxGeometry>
        </mxCell>
        <mxCell id="q2KytA-D3xJXwT2xgLaa-20" value="" style="endArrow=classic;html=1;rounded=0;entryX=0.983;entryY=0.328;entryDx=0;entryDy=0;exitX=0.033;exitY=0.727;exitDx=0;exitDy=0;dashed=1;strokeWidth=2;exitPerimeter=0;entryPerimeter=0;" parent="1" source="q2KytA-D3xJXwT2xgLaa-13" target="q2KytA-D3xJXwT2xgLaa-2" edge="1">
          <mxGeometry width="50" height="50" relative="1" as="geometry">
            <mxPoint x="485" y="160" as="sourcePoint" />
            <mxPoint x="365" y="338" as="targetPoint" />
            <Array as="points" />
          </mxGeometry>
        </mxCell>
        <mxCell id="q2KytA-D3xJXwT2xgLaa-21" value="&lt;b&gt;&amp;lt;include&amp;gt;&lt;/b&gt;" style="edgeLabel;html=1;align=center;verticalAlign=middle;resizable=0;points=[];" parent="q2KytA-D3xJXwT2xgLaa-20" vertex="1" connectable="0">
          <mxGeometry x="0.0099" y="-1" relative="1" as="geometry">
            <mxPoint as="offset" />
          </mxGeometry>
        </mxCell>
        <mxCell id="q2KytA-D3xJXwT2xgLaa-22" value="" style="endArrow=classic;html=1;rounded=0;entryX=1;entryY=1;entryDx=0;entryDy=0;dashed=1;strokeWidth=2;" parent="1" source="q2KytA-D3xJXwT2xgLaa-6" target="q2KytA-D3xJXwT2xgLaa-2" edge="1">
          <mxGeometry width="50" height="50" relative="1" as="geometry">
            <mxPoint x="485" y="170" as="sourcePoint" />
            <mxPoint x="365" y="348" as="targetPoint" />
            <Array as="points" />
          </mxGeometry>
        </mxCell>
        <mxCell id="q2KytA-D3xJXwT2xgLaa-23" value="&lt;b&gt;&amp;lt;include&amp;gt;&lt;/b&gt;" style="edgeLabel;html=1;align=center;verticalAlign=middle;resizable=0;points=[];" parent="q2KytA-D3xJXwT2xgLaa-22" vertex="1" connectable="0">
          <mxGeometry x="0.0099" y="-1" relative="1" as="geometry">
            <mxPoint as="offset" />
          </mxGeometry>
        </mxCell>
        <mxCell id="q2KytA-D3xJXwT2xgLaa-25" style="edgeStyle=orthogonalEdgeStyle;rounded=0;orthogonalLoop=1;jettySize=auto;html=1;entryX=0;entryY=0.5;entryDx=0;entryDy=0;" parent="1" source="q2KytA-D3xJXwT2xgLaa-24" target="q2KytA-D3xJXwT2xgLaa-1" edge="1">
          <mxGeometry relative="1" as="geometry">
            <mxPoint x="60" y="70" as="targetPoint" />
            <Array as="points">
              <mxPoint x="60" y="80" />
            </Array>
          </mxGeometry>
        </mxCell>
        <mxCell id="q2KytA-D3xJXwT2xgLaa-24" value="&lt;b&gt;Commander&lt;/b&gt;" style="image;html=1;image=img/lib/clip_art/people/Suit_Man_Green_128x128.png" parent="1" vertex="1">
          <mxGeometry x="20" y="200" width="80" height="80" as="geometry" />
        </mxCell>
        <mxCell id="q2KytA-D3xJXwT2xgLaa-36" style="edgeStyle=orthogonalEdgeStyle;rounded=0;orthogonalLoop=1;jettySize=auto;html=1;" parent="1" source="q2KytA-D3xJXwT2xgLaa-33" edge="1">
          <mxGeometry relative="1" as="geometry">
            <mxPoint x="50" y="300" as="targetPoint" />
          </mxGeometry>
        </mxCell>
        <mxCell id="q2KytA-D3xJXwT2xgLaa-38" value="&lt;b&gt;Generalize&lt;/b&gt;" style="edgeLabel;html=1;align=center;verticalAlign=middle;resizable=0;points=[];" parent="q2KytA-D3xJXwT2xgLaa-36" vertex="1" connectable="0">
          <mxGeometry x="-0.094" relative="1" as="geometry">
            <mxPoint as="offset" />
          </mxGeometry>
        </mxCell>
        <mxCell id="q2KytA-D3xJXwT2xgLaa-33" value="&lt;div&gt;&lt;b&gt;Management&lt;br&gt;Teams&lt;/b&gt;&lt;/div&gt;" style="image;html=1;image=img/lib/clip_art/people/Pilot_Woman_128x128.png" parent="1" vertex="1">
          <mxGeometry x="10" y="470" width="80" height="80" as="geometry" />
        </mxCell>
        <mxCell id="q2KytA-D3xJXwT2xgLaa-41" value="" style="endArrow=classic;html=1;rounded=0;dashed=1;strokeWidth=2;entryX=0;entryY=1;entryDx=0;entryDy=0;exitX=0.98;exitY=0.263;exitDx=0;exitDy=0;exitPerimeter=0;" parent="1" source="q2KytA-D3xJXwT2xgLaa-5" target="q2KytA-D3xJXwT2xgLaa-2" edge="1">
          <mxGeometry width="50" height="50" relative="1" as="geometry">
            <mxPoint x="350" y="320" as="sourcePoint" />
            <mxPoint x="447.5" y="315" as="targetPoint" />
            <Array as="points" />
          </mxGeometry>
        </mxCell>
        <mxCell id="q2KytA-D3xJXwT2xgLaa-42" value="&lt;b&gt;&amp;lt;extend&amp;gt;&lt;/b&gt;" style="edgeLabel;html=1;align=center;verticalAlign=middle;resizable=0;points=[];" parent="q2KytA-D3xJXwT2xgLaa-41" vertex="1" connectable="0">
          <mxGeometry x="0.0099" y="-1" relative="1" as="geometry">
            <mxPoint as="offset" />
          </mxGeometry>
        </mxCell>
        <mxCell id="q2KytA-D3xJXwT2xgLaa-51" value="&lt;b&gt;Detect Smoke/Fire&lt;/b&gt;" style="ellipse;whiteSpace=wrap;html=1;fillColor=#b1ddf0;strokeColor=#10739e;" parent="1" vertex="1">
          <mxGeometry x="172.5" y="510" width="115" height="80" as="geometry" />
        </mxCell>
        <mxCell id="q2KytA-D3xJXwT2xgLaa-52" value="" style="endArrow=classic;html=1;rounded=0;dashed=1;strokeWidth=2;exitX=1;exitY=0.5;exitDx=0;exitDy=0;" parent="1" source="q2KytA-D3xJXwT2xgLaa-51" target="q2KytA-D3xJXwT2xgLaa-3" edge="1">
          <mxGeometry width="50" height="50" relative="1" as="geometry">
            <mxPoint x="330" y="495" as="sourcePoint" />
            <mxPoint x="330" y="445" as="targetPoint" />
            <Array as="points" />
          </mxGeometry>
        </mxCell>
        <mxCell id="q2KytA-D3xJXwT2xgLaa-53" value="&lt;b&gt;&amp;lt;extend&amp;gt;&lt;/b&gt;" style="edgeLabel;html=1;align=center;verticalAlign=middle;resizable=0;points=[];" parent="q2KytA-D3xJXwT2xgLaa-52" vertex="1" connectable="0">
          <mxGeometry x="0.0099" y="-1" relative="1" as="geometry">
            <mxPoint as="offset" />
          </mxGeometry>
        </mxCell>
        <mxCell id="q2KytA-D3xJXwT2xgLaa-59" value="&lt;font style=&quot;font-size: 19px;&quot;&gt;&lt;b style=&quot;&quot;&gt;&lt;span&gt;PROJECT&amp;nbsp; DRISHTI&lt;/span&gt;&lt;/b&gt;&lt;/font&gt;" style="text;html=1;align=center;verticalAlign=middle;resizable=0;points=[];autosize=1;strokeColor=none;fillColor=none;fontStyle=0;fontFamily=Comic Sans MS;" parent="1" vertex="1">
          <mxGeometry x="290" y="-25" width="220" height="40" as="geometry" />
        </mxCell>
        <mxCell id="KgOcp3zL5TzuFMi9tkQG-5" style="edgeStyle=orthogonalEdgeStyle;rounded=0;orthogonalLoop=1;jettySize=auto;html=1;exitX=0;exitY=0.5;exitDx=0;exitDy=0;entryX=0;entryY=0.5;entryDx=0;entryDy=0;" edge="1" parent="1" target="q2KytA-D3xJXwT2xgLaa-2">
          <mxGeometry relative="1" as="geometry">
            <mxPoint x="90" y="250" as="sourcePoint" />
          </mxGeometry>
        </mxCell>
        <mxCell id="KgOcp3zL5TzuFMi9tkQG-7" value="" style="endArrow=classic;html=1;rounded=0;dashed=1;strokeWidth=2;entryX=0.923;entryY=0.828;entryDx=0;entryDy=0;entryPerimeter=0;" edge="1" parent="1" target="q2KytA-D3xJXwT2xgLaa-3">
          <mxGeometry width="50" height="50" relative="1" as="geometry">
            <mxPoint x="520" y="530" as="sourcePoint" />
            <mxPoint x="481" y="550" as="targetPoint" />
            <Array as="points" />
          </mxGeometry>
        </mxCell>
        <mxCell id="KgOcp3zL5TzuFMi9tkQG-8" value="&lt;b&gt;&amp;lt;extend&amp;gt;&lt;/b&gt;" style="edgeLabel;html=1;align=center;verticalAlign=middle;resizable=0;points=[];" vertex="1" connectable="0" parent="KgOcp3zL5TzuFMi9tkQG-7">
          <mxGeometry x="0.0099" y="-1" relative="1" as="geometry">
            <mxPoint x="-6" as="offset" />
          </mxGeometry>
        </mxCell>
      </root>
    </mxGraphModel>
  </diagram>
</mxfile>
